<svg xmlns="http://www.w3.org/2000/svg" xmlns:xlink="http://www.w3.org/1999/xlink" width="672" height="211pt" viewBox="0 0 504 211"><g id="graph0" class="graph" transform="scale(1 1) rotate(0) translate(4 207)"><title>dependencies</title><polygon fill="#fff" stroke="transparent" points="-4 4 -4 -207 500 -207 500 4 -4 4"/><text x="227.01" y="-42.4" font-family="Times-12" font-size="14" font-weight="bold" text-anchor="start">Legend</text><polygon fill="#ffffb3" stroke="transparent" points="14 -10 14 -30 34 -30 34 -10 14 -10"/><text x="37.63" y="-15.4" font-family="Times-12" font-size="14" text-anchor="start">Declarations</text><polygon fill="#8dd3c7" stroke="transparent" points="127 -10 127 -30 147 -30 147 -10 127 -10"/><text x="150.73" y="-15.4" font-family="Times-12" font-size="14" text-anchor="start">Module</text><polygon fill="#80b1d3" stroke="transparent" points="213 -10 213 -30 233 -30 233 -10 213 -10"/><text x="236.78" y="-15.4" font-family="Times-12" font-size="14" text-anchor="start">Bootstrap</text><polygon fill="#fdb462" stroke="transparent" points="310 -10 310 -30 330 -30 330 -10 310 -10"/><text x="333.67" y="-15.4" font-family="Times-12" font-size="14" text-anchor="start">Providers</text><polygon fill="#fb8072" stroke="transparent" points="406 -10 406 -30 426 -30 426 -10 406 -10"/><text x="429.73" y="-15.4" font-family="Times-12" font-size="14" text-anchor="start">Exports</text><g id="clust1" class="cluster"><title>cluster_AppModule</title><polygon fill="none" stroke="#000" stroke-dasharray="1 5" points="175 -70 175 -195 321 -195 321 -70 175 -70"/></g><g id="clust6" class="cluster"><title>cluster_AppModule_providers</title><polygon fill="none" stroke="#000" points="183 -78 183 -130 313 -130 313 -78 183 -78"/></g><g id="node1" class="node"><title>AppService</title><ellipse cx="248" cy="-104" fill="#fdb462" stroke="#000" rx="56.74" ry="18"/><text x="248" y="-99.8" font-family="Times,serif" font-size="14" text-anchor="middle">AppService</text></g><g id="node2" class="node"><title>AppModule</title><polygon fill="#8dd3c7" stroke="#000" points="289.66 -187 286.66 -191 265.66 -191 262.66 -187 206.34 -187 206.34 -151 289.66 -151 289.66 -187"/><text x="248" y="-164.8" font-family="Times,serif" font-size="14" text-anchor="middle">AppModule</text></g><g id="edge1" class="edge"><title>AppService-&gt;AppModule</title><path fill="none" stroke="#000" d="M248,-122.11C248,-122.11 248,-140.99 248,-140.99"/><polygon fill="#000" stroke="#000" points="244.5 -140.99 248 -150.99 251.5 -140.99 244.5 -140.99"/></g></g></svg>